<svg width="960" height="95" viewBox="0 0 960 95" fill="none" xmlns="http://www.w3.org/2000/svg">
<path d="M960 94.1977L947.7 89.7467C935.3 85.1921 910.7 76.2899 886 77.118C861.3 77.9461 836.7 88.7115 812 92.8521C787.3 96.9926 762.7 94.5083 738.2 90.7818C713.7 86.9518 689.3 81.7761 664.8 81.2585C640.3 80.741 615.7 84.8815 591 84.3639C566.3 83.8464 541.7 78.6707 517 75.0477C492.3 71.4247 467.7 69.3545 443 73.1845C418.3 76.911 393.7 86.6413 369 89.2291C344.3 91.8169 319.7 87.2623 295.2 84.571C270.7 81.7761 246.3 80.741 221.8 80.2234C197.3 79.7058 172.7 79.7058 148 82.0866C123.3 84.571 98.7 89.3326 74 89.5396C49.3 89.7467 24.7 85.1921 12.3 83.0183L0 80.741V0.000257134H12.3C24.7 0.000257134 49.3 0.000257134 74 0.000257134C98.7 0.000257134 123.3 0.000257134 148 0.000257134C172.7 0.000257134 197.3 0.000257134 221.8 0.000257134C246.3 0.000257134 270.7 0.000257134 295.2 0.000257134C319.7 0.000257134 344.3 0.000257134 369 0.000257134C393.7 0.000257134 418.3 0.000257134 443 0.000257134C467.7 0.000257134 492.3 0.000257134 517 0.000257134C541.7 0.000257134 566.3 0.000257134 591 0.000257134C615.7 0.000257134 640.3 0.000257134 664.8 0.000257134C689.3 0.000257134 713.7 0.000257134 738.2 0.000257134C762.7 0.000257134 787.3 0.000257134 812 0.000257134C836.7 0.000257134 861.3 0.000257134 886 0.000257134C910.7 0.000257134 935.3 0.000257134 947.7 0.000257134H960V94.1977Z" fill="#80FCB2" fill-opacity="0.25"/>
<path d="M960 39.4459L947.7 42.041C935.3 44.6361 910.7 49.8264 886 50.6568C861.3 51.5911 836.7 48.0617 812 47.2313C787.3 46.4008 762.7 48.0617 738.2 51.1758C713.7 54.29 689.3 58.8575 664.8 59.3765C640.3 59.8955 615.7 56.3661 591 55.2243C566.3 53.9786 541.7 55.0167 517 55.5357C492.3 56.0547 467.7 56.0547 443 55.2243C418.3 54.29 393.7 52.6291 369 51.1758C344.3 49.8264 319.7 48.7883 295.2 50.034C270.7 51.1759 246.3 54.7052 221.8 57.9232C197.3 61.245 172.7 67.9767 148 67.1462C123.3 66.212 91.7 62.5944 67 57.9232C42.3 53.252 15.9 48.6848 3.5 46.5049L0 45.78V-0.000197185H12.3C24.7 -0.000197185 49.3 -0.000197185 74 -0.000197185C98.7 -0.000197185 123.3 -0.000197185 148 -0.000197185C172.7 -0.000197185 197.3 -0.000197185 221.8 -0.000197185C246.3 -0.000197185 270.7 -0.000197185 295.2 -0.000197185C319.7 -0.000197185 344.3 -0.000197185 369 -0.000197185C393.7 -0.000197185 418.3 -0.000197185 443 -0.000197185C467.7 -0.000197185 492.3 -0.000197185 517 -0.000197185C541.7 -0.000197185 566.3 -0.000197185 591 -0.000197185C615.7 -0.000197185 640.3 -0.000197185 664.8 -0.000197185C689.3 -0.000197185 713.7 -0.000197185 738.2 -0.000197185C762.7 -0.000197185 787.3 -0.000197185 812 -0.000197185C836.7 -0.000197185 861.3 -0.000197185 886 -0.000197185C910.7 -0.000197185 935.3 -0.000197185 947.7 -0.000197185H960V39.4459Z" fill="#52FB8E" fill-opacity="0.35"/>
<path d="M960 23.9197L947.7 22.5678C935.3 21.1118 910.7 18.4079 886 21.5278C861.3 24.6477 836.7 33.5915 812 35.6715C787.3 37.7514 762.7 32.9675 738.2 28.5996C713.7 24.2317 689.3 20.4878 664.8 22.0478C640.3 23.6078 615.7 30.4716 591 31.7196C566.3 32.9675 541.7 28.3917 517 29.8476C492.3 31.1996 467.7 38.4794 443 42.3274C418.3 46.0713 393.7 46.4872 369 41.3914C344.3 36.3995 319.7 25.9997 295.2 21.8398C270.7 17.6799 246.3 19.7598 221.8 24.1277C197.3 28.3917 172.7 35.0475 148 33.5915C123.3 32.2396 98.7 22.8798 74 23.6078C49.3 24.2317 24.7 35.0475 12.3 40.3514L0 45.7593V0.000244379L12.3 0.000244379C24.7 0.000244379 49.3 0.000244379 74 0.000244379C98.7 0.000244379 122.8 0.000244379 147.5 0.000244379C172.2 0.000244379 197.3 0.000244379 221.8 0.000244379C246.3 0.000244379 270.7 0.000244379 295.2 0.000244379C319.7 0.000244379 344.3 0.000244379 369 0.000244379C393.7 0.000244379 418.3 0.000244379 443 0.000244379C467.7 0.000244379 492.3 0.000244379 517 0.000244379C541.7 0.000244379 566.3 0.000244379 591 0.000244379C615.7 0.000244379 640.3 0.000244379 664.8 0.000244379C689.3 0.000244379 713.7 0.000244379 738.2 0.000244379C762.7 0.000244379 787.3 0.000244379 812 0.000244379C836.7 0.000244379 861.3 0.000244379 886 0.000244379C910.7 0.000244379 935.3 0.000244379 947.7 0.000244379H960V23.9197Z" fill="#39A0ED" fill-opacity="0.6"/>
</svg>
