<svg width="960" height="191" viewBox="0 0 960 191" fill="none" xmlns="http://www.w3.org/2000/svg">
<path d="M0 1.61296L12.3 10.562C24.7 19.7192 49.3 37.6173 74 35.9524C98.7 34.2874 123.3 12.6432 148 4.31847C172.7 -4.00624 197.3 0.988587 221.8 8.48082C246.3 16.1812 270.7 26.5871 295.2 27.6277C319.7 28.6683 344.3 20.3436 369 21.3841C393.7 22.4247 418.3 32.8306 443 40.1147C467.7 47.3988 492.3 51.5612 517 43.8608C541.7 36.3686 566.3 16.8055 591 11.6026C615.7 6.39964 640.3 15.5568 664.8 20.9679C689.3 26.5871 713.7 28.6683 738.2 29.7088C762.7 30.7494 787.3 30.7495 812 25.9628C836.7 20.9679 861.3 11.3945 886 10.9783C910.7 10.562 935.3 19.7192 947.7 24.0896L960 28.6683V191H947.7C935.3 191 910.7 191 886 191C861.3 191 836.7 191 812 191C787.3 191 762.7 191 738.2 191C713.7 191 689.3 191 664.8 191C640.3 191 615.7 191 591 191C566.3 191 541.7 191 517 191C492.3 191 467.7 191 443 191C418.3 191 393.7 191 369 191C344.3 191 319.7 191 295.2 191C270.7 191 246.3 191 221.8 191C197.3 191 172.7 191 148 191C123.3 191 98.7 191 74 191C49.3 191 24.7 191 12.3 191H0L0 1.61296Z" fill="#80FCB2" fill-opacity="0.25"/>
<path d="M0 111.693L12.3 106.475C24.7 101.257 49.3 90.8221 74 89.1525C98.7 87.2742 123.3 94.3701 148 96.0397C172.7 97.7094 197.3 94.3701 221.8 88.109C246.3 81.8479 270.7 72.6648 295.2 71.6213C319.7 70.5778 344.3 77.6737 369 79.9695C393.7 82.4739 418.3 80.3869 443 79.3434C467.7 78.2999 492.3 78.2999 517 79.9695C541.7 81.8478 566.3 85.1871 591 88.109C615.7 90.8221 640.3 92.9091 664.8 90.4047C689.3 88.1089 713.7 81.0131 738.2 74.5432C762.7 67.8647 787.3 54.3304 812 56C836.7 57.8784 868.3 65.1515 893 74.5432C917.7 83.9349 944.1 93.1173 956.5 97.5L960 98.9575V191H947.7C935.3 191 910.7 191 886 191C861.3 191 836.7 191 812 191C787.3 191 762.7 191 738.2 191C713.7 191 689.3 191 664.8 191C640.3 191 615.7 191 591 191C566.3 191 541.7 191 517 191C492.3 191 467.7 191 443 191C418.3 191 393.7 191 369 191C344.3 191 319.7 191 295.2 191C270.7 191 246.3 191 221.8 191C197.3 191 172.7 191 148 191C123.3 191 98.7 191 74 191C49.3 191 24.7 191 12.3 191H0L0 111.693Z" fill="#52FB8E" fill-opacity="0.35"/>
<path d="M0 142.909L12.3 145.627C24.7 148.555 49.3 153.991 74 147.718C98.7 141.445 123.3 123.464 148 119.282C172.7 115.1 197.3 124.718 221.8 133.5C246.3 142.282 270.7 149.809 295.2 146.673C319.7 143.536 344.3 129.736 369 127.227C393.7 124.718 418.3 133.918 443 130.991C467.7 128.273 492.3 113.636 517 105.9C541.7 98.3727 566.3 97.5364 591 107.782C615.7 117.818 640.3 138.727 664.8 147.091C689.3 155.455 713.7 151.273 738.2 142.491C762.7 133.918 787.3 120.536 812 123.464C836.7 126.182 861.3 145 886 143.536C910.7 142.282 935.3 120.536 947.7 109.873L960 99V191H947.7C935.3 191 910.7 191 886 191C861.3 191 837.2 191 812.5 191C787.8 191 762.7 191 738.2 191C713.7 191 689.3 191 664.8 191C640.3 191 615.7 191 591 191C566.3 191 541.7 191 517 191C492.3 191 467.7 191 443 191C418.3 191 393.7 191 369 191C344.3 191 319.7 191 295.2 191C270.7 191 246.3 191 221.8 191C197.3 191 172.7 191 148 191C123.3 191 98.7 191 74 191C49.3 191 24.7 191 12.3 191H0L0 142.909Z" fill="#39A0ED" fill-opacity="0.6"/>
</svg>
