<svg width="960" height="89" viewBox="0 0 960 89" fill="none" xmlns="http://www.w3.org/2000/svg">
<path d="M0 4.49783L12.3 6.14248C24.7 7.78714 49.3 11.0764 74 10.6927C98.7 10.3638 123.3 6.30696 148 3.78515C172.7 1.20852 197.3 0.112068 221.8 0.00242419C246.3 -0.0523977 270.7 0.824766 295.2 2.4146C319.7 3.94961 344.3 6.14249 369 8.1709C393.7 10.1445 418.3 12.0084 443 10.6379C467.7 9.26734 492.3 4.66229 517 4.22372C541.7 3.78514 566.3 7.40339 591 6.96481C615.7 6.52624 640.3 1.9212 664.8 2.14049C689.3 2.30496 713.7 7.23892 738.2 9.98002C762.7 12.7211 787.3 13.2693 812 11.7343C836.7 10.1445 861.3 6.52624 886 6.52624C910.7 6.52624 935.3 10.1445 947.7 12.0084L960 13.8175V50H947.5C935.1 50 910.7 50 886 50C861.3 50 836.7 50 812 50C787.3 50 762.5 50 738 50C713.5 50 689 50 664.5 50C640 50 615.7 50 591 50C566.3 50 541.2 50 516.5 50C491.8 50 467.7 50 443 50C418.3 50 393.7 50 369 50C344.3 50 319.5 50 295 50C270.5 50 246 50 221.5 50C197 50 172.7 50 148 50C123.3 50 98.7 50 74 50C49.3 50 24.4 50 12 50H0V4.49783Z" fill="#80FCB2" fill-opacity="0.25"/>
<path d="M0 25.5522L12.3 25.441C24.7 25.3855 49.3 25.1632 74 24.0519C98.7 22.9407 123.3 20.9404 148 19.9958C172.7 19.0513 197.3 19.2735 221.8 18.4401C246.3 17.6066 270.7 15.7175 295.2 14.7173C319.7 13.7172 344.3 13.4949 369 15.8286C393.7 18.1622 418.3 22.9407 443 25.1077C467.7 27.2191 492.3 26.6634 517 24.7187C541.7 22.774 566.3 19.4402 591 18.4401C615.7 17.3844 640.3 18.7179 664.8 20.6626C689.3 22.6073 713.7 25.1632 738.2 25.9967C762.7 26.8301 787.3 25.9411 812 25.2743C836.7 24.6076 861.3 24.2742 886 23.3296C910.7 22.3851 935.3 20.9404 947.7 20.1625L960 19.4402V50H948C935.6 50 910.7 50 886 50C861.3 50 836.7 50 812 50C787.3 50 762.5 50 738 50C713.5 50 689 50 664.5 50C640 50 615.7 50 591 50C566.3 50 541.7 50 517 50C492.3 50 467.7 50 443 50C418.3 50 393.7 50 369 50C344.3 50 319.5 50 295 50C270.5 50 246 50 221.5 50C197 50 172.7 50 148 50C123.3 50 98.7 50 74 50C49.3 50 24.9 50 12.5 50H0V25.5522Z" fill="#52FB8E" fill-opacity="0.35"/>
<path d="M0 32.6115L12.3 32.4432C24.7 32.2189 49.3 31.8823 74 33.4529C98.7 35.0234 123.3 38.6133 148 37.6598C172.7 36.7062 197.3 31.3214 221.8 30.7605C246.3 30.1995 270.7 34.4625 295.2 37.2671C319.7 40.0717 344.3 41.4179 369 42.0349C393.7 42.708 418.3 42.708 443 42.5959C467.7 42.5398 492.3 42.3154 517 42.3154C541.7 42.3154 566.3 42.5398 591 41.0253C615.7 39.5108 640.3 36.3696 664.8 35.8648C689.3 35.4161 713.7 37.6598 738.2 37.772C762.7 37.8281 787.3 35.8087 812 33.4529C836.7 31.097 861.3 28.5168 886 29.0777C910.7 29.6386 935.3 33.3407 947.7 35.2478L960 37.0989V50H947.7C935.3 50 910.7 50 886 50C861.3 50 836.7 50 812 50C787.3 50 762.7 50 738.2 50C713.7 50 689.3 50 664.8 50C640.3 50 615.7 50 591 50C566.3 50 541.7 50 517 50C492.3 50 467.7 50 443 50C418.3 50 393.7 50 369 50C344.3 50 319.7 50 295.2 50C270.7 50 246.3 50 221.8 50C197.3 50 172.7 50 148 50C123.3 50 98.7 50 74 50C49.3 50 24.7 50 12.3 50H0V32.6115Z" fill="#39A0ED" fill-opacity="0.6"/>
<path d="M960 85.5297L947.7 84.2608C935.3 82.9919 910.7 80.4541 886 80.7502C861.3 81.0039 836.7 84.1339 812 86.0796C787.3 88.0676 762.7 88.9135 738.2 88.9981C713.7 89.0404 689.3 88.3637 664.8 87.137C640.3 85.9527 615.7 84.2608 591 82.6958C566.3 81.1731 541.7 79.735 517 80.7924C492.3 81.8499 467.7 85.4029 443 85.7412C418.3 86.0796 393.7 83.288 369 83.6264C344.3 83.9647 319.7 87.5177 295.2 87.3485C270.7 87.2216 246.3 83.4149 221.8 81.3C197.3 79.1851 172.7 78.7622 148 79.9465C123.3 81.1731 98.7 83.9647 74 83.9647C49.3 83.9647 24.7 81.1731 12.3 79.735L0 78.3392V50H12.3C24.7 50 49.3 50 74 50C98.7 50 123.3 50 148 50C172.7 50 197.3 50 221.8 50C246.3 50 270.7 50 295.2 50C319.7 50 344.3 50 369 50C393.7 50 418.3 50 443 50C467.7 50 492.3 50 517 50C541.7 50 566.3 50 591 50C615.7 50 640.3 50 664.8 50C689.3 50 713.7 50 738.2 50C762.7 50 787.3 50 812 50C836.7 50 861.3 50 886 50C910.7 50 935.3 50 947.7 50H960V85.5297Z" fill="#80FCB2" fill-opacity="0.25"/>
<path d="M960 69.0337L947.7 69.1183C935.3 69.1606 910.7 69.3298 886 70.1758C861.3 71.0217 836.7 72.5444 812 73.2635C787.3 73.9825 762.7 73.8133 738.2 74.4478C713.7 75.0822 689.3 76.5203 664.8 77.2817C640.3 78.0431 615.7 78.2122 591 76.4358C566.3 74.6593 541.7 71.0217 517 69.3721C492.3 67.7648 467.7 68.1878 443 69.6682C418.3 71.1486 393.7 73.6864 369 74.4478C344.3 75.2514 319.7 74.2363 295.2 72.7559C270.7 71.2755 246.3 69.3298 221.8 68.6954C197.3 68.0609 172.7 68.7376 148 69.2452C123.3 69.7528 98.7 70.0066 74 70.7256C49.3 71.4447 24.7 72.5444 12.3 73.1366L0 73.6864V49.9999H12.3C24.7 49.9999 49.3 49.9999 74 49.9999C98.7 49.9999 123.3 49.9999 148 49.9999C172.7 49.9999 197.3 49.9999 221.8 49.9999C246.3 49.9999 270.7 49.9999 295.2 49.9999C319.7 49.9999 344.3 49.9999 369 49.9999C393.7 49.9999 418.3 49.9999 443 49.9999C467.7 49.9999 492.3 49.9999 517 49.9999C541.7 49.9999 566.3 49.9999 591 49.9999C615.7 49.9999 640.3 49.9999 664.8 49.9999C689.3 49.9999 713.7 49.9999 738.2 49.9999C762.7 49.9999 787.3 49.9999 812 49.9999C836.7 49.9999 861.3 49.9999 886 49.9999C910.7 49.9999 935.3 49.9999 947.7 49.9999H960V69.0337Z" fill="#52FB8E" fill-opacity="0.35"/>
<path d="M960 63.5351L947.7 63.662C935.3 63.8312 910.7 64.085 886 62.9006C861.3 61.7163 836.7 59.0093 812 59.7283C787.3 60.4474 762.7 64.5079 738.2 64.9309C713.7 65.3539 689.3 62.1393 664.8 60.0244C640.3 57.9096 615.7 56.8944 591 56.4292C566.3 55.9216 541.7 55.9216 517 56.0062C492.3 56.0485 467.7 56.2177 443 56.2177C418.3 56.2177 393.7 56.0485 369 57.1905C344.3 58.3325 319.7 60.7012 295.2 61.0819C270.7 61.4202 246.3 59.7283 221.8 59.6437C197.3 59.6014 172.7 61.1242 148 62.9006C123.3 64.6771 98.7 66.6228 74 66.1998C49.3 65.7769 24.7 62.9852 12.3 61.5471L0 60.1513V50H12.3C24.7 50 49.3 50 74 50C98.7 50 123.3 50 148 50C172.7 50 197.3 50 221.8 50C246.3 50 270.7 50 295.2 50C319.7 50 344.3 50 369 50C393.7 50 418.3 50 443 50C467.7 50 492.3 50 517 50C541.7 50 566.3 50 591 50C615.7 50 640.3 50 664.8 50C689.3 50 713.7 50 738.2 50C762.7 50 787.3 50 812 50C836.7 50 861.3 50 886 50C910.7 50 935.3 50 947.7 50H960V63.5351Z" fill="#39A0ED" fill-opacity="0.6"/>
</svg>
